/* XPM */
static char *_828aa896d574716f696871f639fd9b0[] = {
/* columns rows colors chars-per-pixel */
"32 32 184 2 ",
"   c #010106",
".  c #01020B",
"X  c #0D0C0C",
"o  c #0A0A07",
"O  c #120F06",
"+  c #100F0A",
"@  c #11100C",
"#  c #1A160A",
"$  c #1C180F",
"%  c #090B10",
"&  c #0A0F1B",
"*  c #0E1015",
"=  c #121214",
"-  c #1A1917",
";  c #1B1B1D",
":  c #161618",
">  c #241D06",
",  c #231D0B",
"<  c #211607",
"1  c #201C11",
"2  c #221E18",
"3  c #2C2204",
"4  c #27210B",
"5  c #2B250A",
"6  c #2B2608",
"7  c #302401",
"8  c #372A07",
"9  c #3B2C06",
"0  c #30260C",
"q  c #352B0A",
"w  c #3A2E0B",
"e  c #3D3307",
"r  c #3C320C",
"t  c #262114",
"y  c #2A2415",
"u  c #2E2913",
"i  c #23211B",
"p  c #2F2918",
"a  c #2B2518",
"s  c #312712",
"d  c #332B13",
"f  c #3A2E12",
"g  c #322B18",
"h  c #382E19",
"j  c #373112",
"k  c #3C3213",
"l  c #3F3818",
"z  c #363224",
"x  c #443205",
"c  c #4B3402",
"v  c #433906",
"b  c #4C3C06",
"n  c #43350C",
"m  c #4B370C",
"M  c #453A0B",
"N  c #4C3C0C",
"B  c #543601",
"V  c #533C03",
"C  c #593E03",
"Z  c #533E0C",
"A  c #423512",
"S  c #433B13",
"D  c #4C3D12",
"F  c #423719",
"G  c #4C3F1C",
"H  c #4B3612",
"J  c #543F12",
"K  c #463E23",
"L  c #4E410B",
"P  c #514106",
"I  c #5C4203",
"U  c #564907",
"Y  c #5D4907",
"T  c #54430B",
"R  c #5B440C",
"E  c #574A0A",
"W  c #5C4A0C",
"Q  c #4E4213",
"!  c #4D411C",
"~  c #524210",
"^  c #5A4512",
"/  c #544915",
"(  c #5D4A13",
")  c #55461B",
"_  c #5E4D1F",
"`  c #624506",
"'  c #634B06",
"]  c #6A4D04",
"[  c #60460C",
"{  c #644D0C",
"}  c #6A4D0B",
"|  c #6D5205",
" . c #64530C",
".. c #6C540B",
"X. c #705B07",
"o. c #72540B",
"O. c #634B12",
"+. c #614F1A",
"@. c #6C4C16",
"#. c #724E11",
"$. c #645312",
"%. c #675A13",
"&. c #6D5C13",
"*. c #64511C",
"=. c #6E5919",
"-. c #715512",
";. c #735D14",
":. c #7D5E16",
">. c #765C1A",
",. c #756612",
"<. c #7B6315",
"1. c #7F6A17",
"2. c #776218",
"3. c #79641F",
"4. c #4F482C",
"5. c #4E4321",
"6. c #5B4E24",
"7. c #524828",
"8. c #514521",
"9. c #5D512A",
"0. c #635222",
"q. c #6A5C29",
"w. c #685F38",
"e. c #7A6724",
"r. c #77652A",
"t. c #845C0D",
"y. c #805F12",
"u. c #80630D",
"i. c #876C0D",
"p. c #93680D",
"a. c #87691C",
"s. c #896715",
"d. c #916D13",
"f. c #9C6E12",
"g. c #946F1C",
"h. c #8D731D",
"j. c #94781F",
"k. c #937013",
"l. c #A07E1A",
"z. c #806722",
"x. c #826F2C",
"c. c #876E24",
"v. c #8C7529",
"b. c #8F792C",
"n. c #947B23",
"m. c #9C7C20",
"M. c #967E2A",
"N. c #927623",
"B. c #867230",
"V. c #937E34",
"C. c #907E3A",
"Z. c #A6821B",
"A. c #9C8125",
"S. c #9B832B",
"D. c #99842D",
"F. c #9B8432",
"G. c #9C8832",
"H. c #96833B",
"J. c #9E8D3E",
"K. c #A58B2C",
"L. c #A38D34",
"P. c #A9933C",
"I. c #A2903C",
"U. c #B39C3E",
"Y. c #978847",
"T. c #988845",
"R. c #9B8D4F",
"E. c #A39243",
"W. c #AA9641",
"Q. c #A6984E",
"!. c #AB9B4C",
"~. c #AB9A47",
"^. c #B49F48",
"/. c #B5A047",
"(. c #BAA64B",
"). c #AEA058",
"_. c #B6A554",
"`. c #B9AA5A",
"'. c #BCAF61",
"]. c #BFB161",
"[. c #CEBC5D",
"{. c #C6B862",
"}. c #C0B164",
"|. c None",
/* pixels */
"|.|.|.|.|.|.|.|.|.|.|.|.|.|.|.|.|.|.|.|.|.|.|.|.|.|.|.|.|.|.|.|.",
"|.|.|.|.|.|.|.|.|.|.|.|.|.|.|.|.|.|.|.|.|.|.|.|.|.|.|.|.|.|.|.|.",
"|.|.|.|.|.|.|.|.|.|.|.|.|.|.l.m.M.F.|.|.|.|.|.|.|.|.|.|.|.|.|.|.",
"|.|.|.|.|.|.|.|.|.|.J.G.M.z.0.6.7.9.r.V.I.~.|.|.|.|.|.|.|.|.|.|.",
"|.|.|.|.|.|.|.|.|.!.V._ ; k L s t b n 2 G V./.E.|.|.|.|.|.|.|.|.",
"|.|.|.|.|.|.|.{._.*.] Y M k 2 ; f y u r Z ] O.H.P.|.|.|.|.|.|.|.",
"|.|.|.|.|.|.`.R.I | ' } ..^ D 2 : n T Z { { ] [ B.L.|.|.|.|.|.|.",
"|.|.|.|.|.!.Y.I | ' ..{ p d Z Z } R s d b N T ' C e.F.|.|.|.|.|.",
"|.|.|.|.|.E.Z o.[ o.{ O.2 s H a ` t t f N k j m } Z v.M.|.|.|.|.",
"|.|.|.|.P.+.| C o.( J { D t R 2 m k N { A r j E Z [ ( j.|.|.|.|.",
"|.|.|.L.V.` { ..O.O.~ Z } d d m n f R ~ W O. .,.;.W { e.j.|.|.|.",
"|.|.|.F.8.Z J O.O.^ o.R p.#.O.#.H 2 j S ^ ~ &.1.S W x g N.|.|.|.",
"|.|.|.b.i k h i W k t D } f.d.:.f.@.& j k Q / k j  .r % v.|.|.|.",
"|.|.|.r.k h ^ ; j O.A f t :.;.p y.l.) p $./ k %.%.T r 3 q.I.|.|.",
"|.|.n.6.r a k ( 2 d N ~ { <.a.<.>.Z.h.f j / %. .E L X 7 6.(.|.|.",
"|.|.j.5.$ d - o.( n f m { O.^ =.2.y.-.2 u Q %.S N 5 . O K (.|.|.",
"|.|.m.) 4 = * N { O.^ x r -.Q u <.#.-.<.S d u L L X $ 7 z `.|.|.",
"|.|.M.6.r - s M 1 n N ^ b d.g.@.s.Q q l.,.Q L e U v o e 4.].|.|.",
"|.|.|.e.w y L  .....T A q S %.s.H . , k.,.~  .M 5 I , 3 w.}.|.|.",
"|.|.|.F.* 6 } ( D 4 X n q X   u.%.. q t.E 0 w L 4 9 8 . Y.|.|.|.",
"|.|.|.E.l 0 { T X q R 9 e # 4 o.^ < | } L E w 8 x 9 V A /.|.|.|.",
"|.|.|.Q.C.I V Y q P $ 9 b q | ,.i.y. .M . r Y 3 9 V I N.U.|.|.|.",
"|.|.|.|.).+.V V e 8 6 ] v w U E M  .6 e 0 + v x c I ^ G.|.|.|.|.",
"|.|.|.|.`._.c V V 3 v ' e W e U 6 M E e w # x I V I c.D.|.|.|.|.",
"|.|.|.|.|.[.H.B B x V b L b U X.P v E 6 9 > I C ` >.n.|.|.|.|.|.",
"|.|.|.|.|.|.(.B.B B C ' Y P | > < x b | I V C I >.j.|.|.|.|.|.|.",
"|.|.|.|.|.|.|.W.V.[ B B x 7   +     3 c c C } c.j.|.|.|.|.|.|.|.",
"|.|.|.|.|.|.|.|.G.M.a.Z   > v 3 o 7 3 . 0 a.S.A.|.|.|.|.|.|.|.|.",
"|.|.|.|.|.|.|.|.|.|.m.h.e.*.! g F ! *.x.D.G.|.|.|.|.|.|.|.|.|.|.",
"|.|.|.|.|.|.|.|.|.|.|.|.|.A.S.S.K.K.L.|.|.|.|.|.|.|.|.|.|.|.|.|.",
"|.|.|.|.|.|.|.|.|.|.|.|.|.|.|.|.|.|.|.|.|.|.|.|.|.|.|.|.|.|.|.|.",
"|.|.|.|.|.|.|.|.|.|.|.|.|.|.|.|.|.|.|.|.|.|.|.|.|.|.|.|.|.|.|.|."
};
