/* XPM */
static char *_7b8b83d165d48d4d712c223b7f3f7f8[] = {
/* columns rows colors chars-per-pixel */
"64 64 223 2 ",
"   c #010206",
".  c #0C0B05",
"X  c #02030C",
"o  c #07080E",
"O  c #0B0B0C",
"+  c #080709",
"@  c #110D08",
"#  c #1B1506",
"$  c #15120B",
"%  c #19160A",
"&  c #1D190D",
"*  c #181406",
"=  c #010312",
"-  c #0A0C13",
";  c #0B0E1A",
":  c #070A18",
">  c #0E121C",
",  c #0F1014",
"<  c #141313",
"1  c #1D1B14",
"2  c #13151C",
"3  c #17181C",
"4  c #1B1A1B",
"5  c #181714",
"6  c #0F110E",
"7  c #241B05",
"8  c #231C0B",
"9  c #261C06",
"0  c #211D13",
"q  c #201E19",
"w  c #2B2206",
"e  c #26210B",
"r  c #2C240C",
"t  c #2A2509",
"y  c #342A06",
"u  c #3B2D05",
"i  c #342B0C",
"p  c #3B2D0B",
"a  c #332508",
"s  c #3D3206",
"d  c #3C320B",
"f  c #363008",
"g  c #262214",
"h  c #2B2414",
"j  c #2E2A13",
"k  c #29251A",
"l  c #332B13",
"z  c #3B2D13",
"x  c #362916",
"c  c #353014",
"v  c #3D3313",
"b  c #3B341B",
"n  c #0E1220",
"m  c #131621",
"M  c #191A22",
"N  c #262422",
"B  c #322D23",
"V  c #3B3324",
"C  c #432D04",
"Z  c #432E08",
"A  c #443405",
"S  c #4A3503",
"D  c #4C3B05",
"F  c #43340C",
"G  c #49360C",
"H  c #453A0D",
"J  c #4B3B0B",
"K  c #443A07",
"L  c #533C04",
"P  c #5A3E02",
"I  c #533D0C",
"U  c #513607",
"Y  c #433512",
"T  c #453A14",
"R  c #4B3C13",
"E  c #463717",
"W  c #523D14",
"Q  c #543916",
"!  c #432D11",
"~  c #603C0B",
"^  c #443A23",
"/  c #443B26",
"(  c #4C410A",
")  c #4F4107",
"_  c #554306",
"`  c #5B4304",
"'  c #5D4906",
"]  c #54430C",
"[  c #5B450C",
"{  c #55490D",
"}  c #5C4B0B",
"|  c #5E510A",
" . c #4B4314",
".. c #454014",
"X. c #524311",
"o. c #5B4611",
"O. c #554A12",
"+. c #5C4B12",
"@. c #54481A",
"#. c #5E5215",
"$. c #624503",
"%. c #644B05",
"&. c #6C4C03",
"*. c #61460A",
"=. c #634C0B",
"-. c #6A4D0B",
";. c #6A4509",
":. c #724D01",
">. c #724C0D",
",. c #655207",
"<. c #6C5206",
"1. c #65520B",
"2. c #6B530C",
"3. c #6D5C0A",
"4. c #6A5909",
"5. c #735404",
"6. c #7A5602",
"7. c #755A06",
"8. c #7B5B05",
"9. c #72550B",
"0. c #745B0C",
"q. c #7B5B09",
"w. c #7B560D",
"e. c #644D11",
"r. c #6A4811",
"t. c #734E14",
"y. c #655211",
"u. c #695412",
"i. c #6B5C14",
"p. c #655A14",
"a. c #785813",
"s. c #73620A",
"d. c #7A620B",
"f. c #7D6709",
"g. c #746313",
"h. c #7C6B13",
"j. c #7C6816",
"k. c #6F6010",
"l. c #4C432A",
"z. c #4B4125",
"x. c #51462A",
"c. c #564B2B",
"v. c #5D512D",
"b. c #5E5332",
"n. c #645324",
"m. c #695827",
"M. c #675B35",
"N. c #6E5A26",
"B. c #75642B",
"V. c #7A6728",
"C. c #776935",
"Z. c #746A3B",
"A. c #7E7244",
"S. c #815C04",
"D. c #845E0D",
"F. c #855914",
"G. c #856204",
"H. c #856A0C",
"J. c #886809",
"K. c #946C06",
"L. c #977609",
"P. c #8C641B",
"I. c #856916",
"U. c #956917",
"Y. c #897219",
"T. c #987619",
"R. c #8D700A",
"E. c #A5780C",
"W. c #A57916",
"Q. c #826D28",
"!. c #897328",
"~. c #937D2C",
"^. c #957823",
"/. c #827235",
"(. c #897A3D",
"). c #927C31",
"_. c #8B7D46",
"`. c #A4841C",
"'. c #A98A19",
"]. c #B38A17",
"[. c #B6941B",
"{. c #B79419",
"}. c #AB940D",
"|. c #B6A319",
" X c #9B8228",
".X c #9A8638",
"XX c #A78A25",
"oX c #AB9229",
"OX c #B89A29",
"+X c #AC9638",
"@X c #B99D34",
"#X c #A88D30",
"$X c #BDA139",
"%X c #BDA12E",
"&X c #928312",
"*X c #C39719",
"=X c #CCA51C",
"-X c #D4AD1A",
";X c #C49A22",
":X c #C7A62B",
">X c #C5A939",
",X c #D4B73D",
"<X c #D1AD2D",
"1X c #958849",
"2X c #8C8046",
"3X c #A99748",
"4X c #B29C47",
"5X c #A59750",
"6X c #BAA444",
"7X c #B8A753",
"8X c #D4BA49",
"9X c #D3BB50",
"0X c #CAB653",
"qX c #CBBB62",
"wX c #DBC457",
"eX c #DCC24C",
"rX c #EACD51",
"tX c #DDC962",
"yX c #D9CA71",
"uX c #ECD86C",
"iX c #FFF877",
"pX c #F9E46F",
"aX c None",
/* pixels */
"aXaXaXaXaXaXaXaXaXaXaXaXaXaXaXaXaXaXaXaXaXaXaXaXaXaXaXaXaXaXaXaXaXaXaXaXaXaXaXaXaXaXaXaXaXaXaXaXaXaXaXaXaXaXaXaXaXaXaXaXaXaXaXaX",
"aXaXaXaXaXaXaXaXaXaXaXaXaXaXaXaXaXaXaXaXaXaXaXaXaXaXaXaXaXaXaXaXaXaXaXaXaXaXaXaXaXaXaXaXaXaXaXaXaXaXaXaXaXaXaXaXaXaXaXaXaXaXaXaX",
"aXaXaXaXaXaXaXaXaXaXaXaXaXaXaXaXaXaXaXaXaXaXaXaXaXaXaXaXaXaXaXaXaXaXaXaXaXaXaXaXaXaXaXaXaXaXaXaXaXaXaXaXaXaXaXaXaXaXaXaXaXaXaXaX",
"aXaXaXaXaXaXaXaXaXaXaXaXaXaXaXaXaXaXaXaXaXaXaXaXaXaXaXaXaXaXaXaXaXaXaXaXaXaXaXaXaXaXaXaXaXaXaXaXaXaXaXaXaXaXaXaXaXaXaXaXaXaXaXaX",
"aXaXaXaXaXaXaXaXaXaXaXaXaXaXaXaXaXaXaXaXaXaXaXaXaXaXaXaXaXaXaXaXaXaXaXaXaXaXaXaXaXaXaXaXaXaXaXaXaXaXaXaXaXaXaXaXaXaXaXaXaXaXaXaX",
"aXaXaXaXaXaXaXaXaXaXaXaXaXaXaXaXaXaXaXaXaXaXaXaXaXB.P.T.W.].[.[.oXOXoX#X X!.C.aXaXaXaXaXaXaXaXaXaXaXaXaXaXaXaXaXaXaXaXaXaXaXaXaX",
"aXaXaXaXaXaXaXaXaXaXaXaXaXaXaXaXaXaXaXaXaXaXm.!.OX<X;X`.^.Q.B.N.B.V.Q. X+X>X>X>X+X/.aXaXaXaXaXaXaXaXaXaXaXaXaXaXaXaXaXaXaXaXaXaX",
"aXaXaXaXaXaXaXaXaXaXaXaXaXaXaXaXaXaXaXaX/.+X8X>X~.n.z.b N n N M m 2 M M M V c./.+X,X0X3XaXaXaXaXaXaXaXaXaXaXaXaXaXaXaXaXaXaXaXaX",
"aXaXaXaXaXaXaXaXaXaXaXaXaXaXaXaXaXaXA.0XeX3Xv.B m 4 v g R d ] j 4 4 5 d { : q 4 N x.(.wXrX4XaXaXaXaXaXaXaXaXaXaXaXaXaXaXaXaXaXaX",
"aXaXaXaXaXaXaXaXaXaXaXaXaXaXaXaXZ.6XrX4Xl.l ` R m h { 4.H.3.X.q d G G.1.L.X.} g 0 %.Y / .XeX6X/.aXaXaXaXaXaXaXaXaXaXaXaXaXaXaXaX",
"aXaXaXaXaXaXaXaXaXaXaXaXaXaXaX5XpXtXM.h [ G.G.] m j H 4 g c m 3 j 8.F q q k c , p 5.S.-.v l.3X8X.XaXaXaXaXaXaXaXaXaXaXaXaXaXaXaX",
"aXaXaXaXaXaXaXaXaXaXaXaXaXaX1XiX7XB Z S.8.7.5.[ f G.E > 2 3 4 4 3 4 3 3 ; & ] v J 1.7.5.G.r.x C.8X+XaXaXaXaXaXaXaXaXaXaXaXaXaXaX",
"aXaXaXaXaXaXaXaXaXaXaXaXaX5XpX1X0 $.G.7.q.] ] <.L.] 7.q.l > 2 3 4 3 ; 5 [ 9.-.7.7.[ I 1.-.8.8.x v.>X+XaXaXaXaXaXaXaXaXaXaXaXaXaX",
"aXaXaXaXaXaXaXaXaXaXaXaX5XpX_.4 5.8.7.-.G -.=.9.K.g F o.L.-.l 2 ; 5 L G.K.< ] 5 *.J.7.G I <.<.S.Y l.>XOXaXaXaXaXaXaXaXaXaXaXaXaX",
"aXaXaXaXaXaXaXaXaXaXaX1XuXA.1 q.q.7.[ G G.q.F 8.W > ] 2 F q.-.[ J S.K.=.5 D l F J ' i 9.*.G <.%.S.Y l.@X#XaXaXaXaXaXaXaXaXaXaXaX",
"aXaXaXaXaXaXaXaXaXaXC.rX_.0 8.5.9.I ` K.1.] 1.y.2 3 [ m p =.> I G.*.*.h 2 G r I , <.r Y G q.F =.;.6.Y x.:X~.aXaXaXaXaXaXaXaXaXaX",
"aXaXaXaXaXaXaXaXaXc.9X4Xq 9.8.9.I I G.1.[ [ =.y.m 3 v v p =.2 p [ ` Y 2 1 Z p h 5 9.l Y g ] [ F *.*.8.x m.:XQ.aXaXaXaXaXaXaXaXaX",
"aXaXaXaXaXaXaXaXaX+X9XB ` S.9.I *.w.+.d.-.=.} 2.k 2 2 Y [ [ 3 l *.~ G 2 3 F l l ] 0.& ] i Y - d.Z [ ;.q.B ~.;XaXaXaXaXaXaXaXaXaX",
"aXaXaXaXaXaXaXaXC.eXM.i G.5.] I J.=.2.T 1.2.-.[ -.k > r %.[ 3 > Z *.Y > G G [ %.7.l H Y p v & R.D.Z [ <.=.V ;X^.aXaXaXaXaXaXaXaX",
"aXaXaXaXaXaXaXaX,X4Xq q.9.r.G *.-.u.2.E k W -.=.[ -.q g ;.[ z > Z ~ I j [ =.u.w.x < X.r } j f.+.r I J *.q.E n.{.N.aXaXaXaXaXaXaX",
"aXaXaXaXaXaXaX~.rX/ U S.9.Y w.e.e.e.e.9.R v Y =.*.[ [ 2 G ~ *.z F I z G [ 2.a.h r -.} y.i g.k.e.X.H.J _ =.9.B XXT.aXaXaXaXaXaXaX",
"aXaXaXaXaXaXaX@X+Xh 8.:.I ~ J.+.o.e.e.e.>.2.Y F w.I ~ 4 ; I G J ] Y 2 Y l X.+.J 9.g.g.0.H.s.k.I.Y.h.Y.F ' 8. .n.[.n.aXaXaXaXaXaX",
"aXaXaXaXaXaXm.,Xb.G 8.>.Y G.9.u.e.o.=.[ -.9.o.G E.w.-.~ g [ I z g G 4 Y Y o.> W H.2.T Y v i.Y.g.@.O.#.J ] [ [ V oXY.aXaXaXaXaXaX",
"aXaXaXaXaXaX!.@XB k Y [ I E b u.u.o.X.r.u.-.o.] K.U.F.F.U.P.F.F.>.o.> v v v j +. .0 { y.O.p.h.g.T ..e H.i 8 O 3 !.oXaXaXaXaXaXaX",
"aXaXaXaXaXaXoX).q h 4 h o.M m W o.2.k Y Y W =.[ K.E.W.F.F.`.].E.F.U.#.; 3 2 l Y g l O.R j.I.h.4 = o #.L.Z = - - v.<XB.aXaXaXaXaX",
"aXaXaXaXaXn.:Xv.q [ E v y.n M c Y y.R x ; > Y W l Y E.U.].i.O.a.].U.[.i.; 3 j X.X.| +.O.T j 5 v { k.h.d d.i 8 & ^ %X).aXaXaXaXaX",
"aXaXaXaXaXV.%X/ : R k x J.E 3 m k 9.o.W 5 5 2 H h = S Y.'.2 = = _ ].P.{.k : ; q +.X.c 0 - o O.Y.h.h.r ) d.# ) f j #X#XaXaXaXaXaX",
"aXaXaXaXaXT.oXN G R.k n o.y.T m 3 Y 2.=.-.1.[ F 0 I Q W W Q Q R ! w.U.W.Y.Q E 0 O.p.p.g.g.j.h.g.#.H d H.r X Z 9 & /.6XaXaXaXaXaX",
"aXaXaXaXaX^.~.4 r *.1 m l o.E T > ; Y -.-.2.r.G d L.=X-X-X-X=X*X].[.`.P.XX=Xu.{ O.p.Y.#.i.h.k.H K H d _ = $ L A - C.eXaXaXaXaXaX",
"aXaXaXaXaX`.!.2 , 9.Y 3 ; =.9.+.X.z > q h h ] [ a.o.T W  . . .T b u.'.^.'.c 2 g 1 < c @...c k.( { ( L.e o O y u 6 M.rXZ.aXaXaXaX",
"aXaXaXaXaX'.V.> , z w.1 2 g R.y.W v 0 & 1 5 e I F ] z z z x Y E x Q T.j.I.v v ; , 0 6 1 #.p.4.i.y.f.1.X 6 - % u % c.rX(.aXaXaXaX",
"aXaXaXaXaX'.B.> , r j , 5 ; [ 9.1.y.u.1.1.-.u.z ] K.W.].W.U.`.=X{.{.a.Q t.].X.-  .H.I.h.h.g.j = = _ 8 o O + % + - / wX1XaXaXaXaX",
"aXaXaXaXaX{.N., e 1 > 5 5 , r J.-.u.u.1.-.T l -.9.x o.@.R v b T p.R.Q r.2.+.I.o.c c c c j O.s.d f &.= O o d ) + o l.yX1XaXaXaXaX",
"aXaXaXaXaX{.N.1 G Y o 5 2 - [ u.} } [ X.[ [ 0 & 0 = -.t.a.5 =   ] F.t.a.J F.P.T.c j - & < o ..k.4.f.t o o i s.* = l.uX1XaXaXaXaX",
"aXaXaXaXaX'.Q.; a =.r , , t +.= , - & r r d =.=.] t R.F.W.#.Q t.a.W.=Xz o H.Y.T.H.p.@.d O.j i K d D <.X O   ( s = v.uX_.aXaXaXaX",
"aXaXaXaXaX^.~.4 d 4.& 2 = 1.} d j & -.u.-.d ' =.2.[ J.U.P.T.^.P.P.'.R = = ) T.T.&XO.k.O.| s.d t ) } G.a   + 4.s.X Z.uXaXaXaXaXaX",
"aXaXaXaXaX~.#XN & { < - e R.} =.u.1.u.=.-.2.9.F r f -.`.|.[.'.a.Y $ = 6 o s Y.T.|.d i.s.s.,.) 6 t _ L %.o X J % > _.yXaXaXaXaXaX",
"aXaXaXaXaX!.%XT d | R < _ R R } 1.=.=.=.H H R d F v o 6 , 6 | o.I.0 O 6 o s D.w.}. .i H K +.=.] % 8 S 5.u X ) t 4 5XqXaXaXaXaXaX",
"aXaXaXaXaXB.>Xv., 1 e } ,.] 3.,.-.2.1.e = = . a j O & O O   f.P.|.i X 6 X _ a.w.] r X.K d r } ] G X 8 U &.X * * B qX5XaXaXaXaXaX",
"aXaXaXaXaXaX>X/., o o t d.+.=.y.d g & X O O ) d.a s ( - O + d.a.}.j X o # -.r.D.k.t d & f X.% D f 7 e a %.. X X n.pX2XaXaXaXaXaX",
"aXaXaXaXaXaX+X6Xq O 6 @ 0.} =.F = o   d _ ,.4.8 w ) O . 6   7.r.'.e X . S ;.w.H.) f.y.t s r G D L % w ` D L # 5 .XrXaXaXaXaXaXaX",
"aXaXaXaXaXaX/.wXx.A ] [ H q.) } r X s -.1.Z p $ A { . O ) r 7.~ D.F p I ~ ;.E.8 o { 3.{ ' r @ D L D # ` S ` 6.^ 9X6XaXaXaXaXaXaX",
"aXaXaXaXaXaXaX0X2Xp 8.*.A -.[ *.t w -.,.D X 7 ] ) J @ ) ) 4.q.>.;.t.;.;.q.}.( t o o ) 3.] ' 8 @ S C 5.S _ &.I M.rX/.aXaXaXaXaXaX",
"aXaXaXaXaXaXaX1XtX^ ' *.] A d.L 8 p ` J X y f _ =.D + | 3.3.H.}.}.}.}.J.[ f { ( X + X ) %.D ` 7 @ U %.S ` 6.E >X>XaXaXaXaXaXaXaX",
"aXaXaXaXaXaXaXaXyX1Xj 5.[ Z ` q.* y P w X f D _ _ ) + ' 4.7 3.f } t f h.{   ( s.r + X X D ` _ y w 5.S ` &._ c.,X!.aXaXaXaXaXaXaX",
"aXaXaXaXaXaXaXaX1XuXl.D &.` u $.9 ` P w # &.%.| <.)   | 4.* | ,.f t f s.O.    4.d w D X # ' L 7 _ ` L ` 6.V #XoXaXaXaXaXaXaXaXaX",
"aXaXaXaXaXaXaXaXaXuXqXh &.` P a G.S # w y | ` ,.,.. y 4.4.* ,.4.8 ( t s.s.d   | s   s i # ' S %.D S _ 8.Y B.:XB.aXaXaXaXaXaXaXaX",
"aXaXaXaXaXaXaXaXaX1XiX2Xa :.` U Z ` @ w y ` _ ' # y s.s.( * 4.s.* ( & s 4.s.e ) } + X y D S &.%.S P 5.` l.%X^.aXaXaXaXaXaXaXaXaX",
"aXaXaXaXaXaXaXaXaXaX7XiXM.u :.P U C :.w w ` ` _ 8 ,.s.) . ,.4.) t t { * ) s.t . ,._ . + U 8.` S P &.&./ XX`.aXaXaXaXaXaXaXaXaXaX",
"aXaXaXaXaXaXaXaXaXaXaX9XpXx.Z :.P U C P ` _ _ ) s 3.) . ,.s.s.s.&.7.| e ) 3.K   . ' s @ S.L S P &.5.V T.].aXaXaXaXaXaXaXaXaXaXaX",
"aXaXaXaXaXaXaXaXaXaXaXaXeXwXx.S :.P U C P S.%.D _ | . | H.K.8.7 . S K.S 7 ,.,._ f w &.` S L P 5.:.^ !.{.m.aXaXaXaXaXaXaXaXaXaXaX",
"aXaXaXaXaXaXaXaXaXaXaXaXaX4X9Xv.Z :.P P C C &.6.<.) y L.5.7         @ U L _ %.4.G.$.L S P ` 6.;.^ T.{.N.aXaXaXaXaXaXaXaXaXaXaXaX",
"aXaXaXaXaXaXaXaXaXaXaXaXaXaX4X8XB.x ;.&.P P C S &.G.%.w         . +     # S 8.8.` L U ` $.6.I x.`.[.n.aXaXaXaXaXaXaXaXaXaXaXaXaX",
"aXaXaXaXaXaXaXaXaXaXaXaXaXaXaX.X8X XE G :.;.P P # .         w #       +   9 L   # $.$.6.%.W V.[.`.aXaXaXaXaXaXaXaXaXaXaXaXaXaXaX",
"aXaXaXaXaXaXaXaXaXaXaXaXaXaXaXaXV.>X@XB.! ~ :.S   @ S u A K f.A . @ u ) A D .     P :.Q n.oX=X^.aXaXaXaXaXaXaXaXaXaXaXaXaXaXaXaX",
"aXaXaXaXaXaXaXaXaXaXaXaXaXaXaXaXaXaX^.;XoXN.@.z X * # s f.) w . . u u A w y . = , E n.~.%XXXN.aXaXaXaXaXaXaXaXaXaXaXaXaXaXaXaXaX",
"aXaXaXaXaXaXaXaXaXaXaXaXaXaXaXaXaXaXaXm.W.*X`.V.c.b q - 6   =     * o o 5 g B x.!.#X:XoXQ.aXaXaXaXaXaXaXaXaXaXaXaXaXaXaXaXaXaXaX",
"aXaXaXaXaXaXaXaXaXaXaXaXaXaXaXaXaXaXaXaXaXn.I.`.{.oX`.V.n.c.z.E z.z.c.n.V.~.OX:X%X XC.aXaXaXaXaXaXaXaXaXaXaXaXaXaXaXaXaXaXaXaXaX",
"aXaXaXaXaXaXaXaXaXaXaXaXaXaXaXaXaXaXaXaXaXaXaXaXn.Y.T.XXOXOX%X%X<X<X:X%X@X#X.XQ.aXaXaXaXaXaXaXaXaXaXaXaXaXaXaXaXaXaXaXaXaXaXaXaX",
"aXaXaXaXaXaXaXaXaXaXaXaXaXaXaXaXaXaXaXaXaXaXaXaXaXaXaXaXaXB.C.Q.Q.V.V.aXaXaXaXaXaXaXaXaXaXaXaXaXaXaXaXaXaXaXaXaXaXaXaXaXaXaXaXaX",
"aXaXaXaXaXaXaXaXaXaXaXaXaXaXaXaXaXaXaXaXaXaXaXaXaXaXaXaXaXaXaXaXaXaXaXaXaXaXaXaXaXaXaXaXaXaXaXaXaXaXaXaXaXaXaXaXaXaXaXaXaXaXaXaX",
"aXaXaXaXaXaXaXaXaXaXaXaXaXaXaXaXaXaXaXaXaXaXaXaXaXaXaXaXaXaXaXaXaXaXaXaXaXaXaXaXaXaXaXaXaXaXaXaXaXaXaXaXaXaXaXaXaXaXaXaXaXaXaXaX",
"aXaXaXaXaXaXaXaXaXaXaXaXaXaXaXaXaXaXaXaXaXaXaXaXaXaXaXaXaXaXaXaXaXaXaXaXaXaXaXaXaXaXaXaXaXaXaXaXaXaXaXaXaXaXaXaXaXaXaXaXaXaXaXaX",
"aXaXaXaXaXaXaXaXaXaXaXaXaXaXaXaXaXaXaXaXaXaXaXaXaXaXaXaXaXaXaXaXaXaXaXaXaXaXaXaXaXaXaXaXaXaXaXaXaXaXaXaXaXaXaXaXaXaXaXaXaXaXaXaX"
};
