/* XPM */
static char *d949de4497934e46c65a3853b88e0b34[] = {
/* columns rows colors chars-per-pixel */
"16 16 149 2 ",
"   c #100C05",
".  c #1C1706",
"X  c #171309",
"o  c #1D1908",
"O  c #1E1A09",
"+  c #241F12",
"@  c #2D2508",
"#  c #2F260B",
"$  c #2D260F",
"%  c #2F280D",
"&  c #352A07",
"*  c #3E2C01",
"=  c #3B2B04",
"-  c #3C2D07",
";  c #32280A",
":  c #342908",
">  c #352908",
",  c #392E09",
"<  c #382E0E",
"1  c #38300B",
"2  c #3C3008",
"3  c #3C3009",
"4  c #3E310B",
"5  c #3F370A",
"6  c #3F320D",
"7  c #3F300F",
"8  c #2B2415",
"9  c #2F2916",
"0  c #322A10",
"q  c #362F12",
"w  c #322914",
"e  c #302B18",
"r  c #372F18",
"t  c #3C3113",
"y  c #3F3012",
"u  c #393414",
"i  c #393218",
"p  c #413002",
"a  c #443303",
"s  c #453706",
"d  c #473906",
"f  c #4B3D07",
"g  c #4E3F06",
"h  c #41370A",
"j  c #41370B",
"k  c #44330E",
"l  c #43360F",
"z  c #45360E",
"x  c #46390D",
"c  c #443A0D",
"v  c #483A0C",
"b  c #4C3C0D",
"n  c #533C02",
"m  c #553904",
"M  c #503D05",
"N  c #523E06",
"B  c #533E0A",
"V  c #533F0D",
"C  c #413210",
"Z  c #413311",
"A  c #433410",
"S  c #423713",
"D  c #453711",
"F  c #423514",
"G  c #473910",
"H  c #453A15",
"J  c #493B12",
"K  c #473A18",
"L  c #544405",
"P  c #5B4102",
"I  c #5E4202",
"U  c #5D4306",
"Y  c #56440A",
"T  c #55450C",
"R  c #5C440B",
"E  c #58460D",
"W  c #5B470F",
"Q  c #5E470E",
"!  c #574908",
"~  c #564B0A",
"^  c #55490E",
"/  c #59490E",
"(  c #4D4112",
")  c #4E4015",
"_  c #564610",
"`  c #5A4011",
"'  c #564C13",
"]  c #534815",
"[  c #5F4A12",
"{  c #5E4B16",
"}  c #5D5212",
"|  c #624A05",
" . c #644A0A",
".. c #644B0B",
"X. c #644C0A",
"o. c #694B0F",
"O. c #6C4E0D",
"+. c #6D500B",
"@. c #69500C",
"#. c #69500F",
"$. c #68560F",
"%. c #71550B",
"&. c #624B10",
"*. c #604913",
"=. c #614C11",
"-. c #614D12",
";. c #614E15",
":. c #675213",
">. c #665613",
",. c #655316",
"<. c #6D5715",
"1. c #63521D",
"2. c #63531D",
"3. c #63541E",
"4. c #65551E",
"5. c #69551C",
"6. c #6F5A1D",
"7. c #6C5A1E",
"8. c #735611",
"9. c #705517",
"0. c #7A5D17",
"q. c #7D5F14",
"w. c #705A1C",
"e. c #765F1D",
"r. c #7B6015",
"t. c #77601B",
"y. c #695924",
"u. c #6F6025",
"i. c #6F622E",
"p. c #766524",
"a. c #7F6723",
"s. c #746328",
"d. c #796929",
"f. c #7E6D2D",
"g. c #6F6638",
"h. c #80671F",
"j. c #826A1F",
"k. c #896B1A",
"l. c #8D6E18",
"z. c #876E22",
"x. c #806924",
"c. c #8A732D",
"v. c #897630",
"b. c #8D7B38",
"n. c #947E31",
"m. c #807641",
"M. c #96843E",
"N. c #98853C",
"B. c None",
/* pixels */
"B.B.B.B.B.B.B.B.B.B.B.B.B.B.B.B.",
"B.B.B.B.B.B.x.6.y.f.B.B.B.B.B.B.",
"B.B.B.B.N.t.) e 9 G t.n.B.B.B.B.",
"B.B.B.b.%.| G t Z 7 N ..a.B.B.B.",
"B.B.v.+.X.W w 7 Z D j v ..h.B.B.",
"B.B.w.R [ Q o.` y D _ >./ ;.B.B.",
"B.p.K r F Z 8.q.0.i ) ] ^ < s.B.",
"B.1.8 S J z =.,.l.{ u } j X i.B.",
"B.5.+ 0 W b =.9.*.:.' v , o g.B.",
"B.d.q T x 4 $ =.$ V $.h - $ m.B.",
"B.B.2.M ; - @ Y @.N < 3 * <.B.B.",
"B.B.M.U = s g ~ ~ h O a P j.B.B.",
"B.B.B.c.m n L d & g p I r.B.B.B.",
"B.B.B.B.z.O.: .   : #.k.B.B.B.B.",
"B.B.B.B.B.B.6.3.4.u.B.B.B.B.B.B.",
"B.B.B.B.B.B.B.B.B.B.B.B.B.B.B.B."
};
