<?xml version="1.0" encoding="utf-8"?>
<!-- Generator: Adobe Illustrator 22.1.0, SVG Export Plug-In . SVG Version: 6.00 Build 0)  -->
<svg version="1.1" baseProfile="tiny" id="Layer_1" xmlns="http://www.w3.org/2000/svg" xmlns:xlink="http://www.w3.org/1999/xlink"
	 x="0px" y="0px" viewBox="0 0 100 100" xml:space="preserve">
<g>
	<title>background</title>
	<rect id="canvas_background" x="-1" y="-1" fill="none" width="582" height="402"/>
</g>
<g>
	<title>Layer 1</title>
	<g id="Group_9053">
		<g id="Group_9051">
			<ellipse id="Ellipse_640" fill="#454538" cx="80" cy="56" rx="12" ry="4"/>
			<ellipse id="Ellipse_641" fill="#454538" cx="64" cy="68" rx="12" ry="4"/>
			<path id="Rectangle_4706" fill="#454538" d="M32,24h14v14H32V24z"/>
		</g>
		<g id="Group_9052">
			<path id="Rectangle_4707" fill="#A3A39E" d="M12,60h2v4h-2V60z"/>
			<path id="Path_19001" fill="#A3A39E" d="M92,58c0.6-0.5,0.9-1.2,1-2c0-3.3-6.5-5-13-5s-13,1.7-13,5c0,0.8,0.4,1.5,1,2
				c-1.1,0.9-1.3,2.5-0.4,3.6c0.1,0.1,0.2,0.3,0.4,0.4c-0.3,0.3-0.6,0.7-0.8,1.2c-0.4,0-0.8-0.1-1.2-0.1V39h5V23H52.6
				c3.9-3.1,4.5-8.8,1.4-12.6S45.2,5.9,41.4,9c-1,0.8-1.8,1.8-2.4,2.9C36.7,7.5,31.3,5.7,26.9,8s-6.2,7.7-3.9,12.1
				c0.6,1.1,1.4,2.1,2.4,2.9H7v16h5v17h2V39h50v24c-6.5,0-13,1.7-13,5c0,0.8,0.4,1.5,1,2c-1.1,0.9-1.3,2.5-0.4,3.6
				c0.1,0.1,0.2,0.3,0.4,0.4c-0.3,0.3-0.6,0.6-0.7,1H14v-7h-2v9h39.2c0.2,0.4,0.4,0.7,0.7,1c-1.1,0.9-1.3,2.5-0.4,3.6
				c0.1,0.1,0.2,0.3,0.4,0.4c-1.1,0.9-1.3,2.5-0.4,3.6c0.1,0.1,0.2,0.3,0.4,0.4c-0.6,0.5-0.9,1.2-1,2c0,3.3,6.5,5,13,5
				c5.9,0,11.8-1.4,12.8-4.2c1,0.1,2.1,0.2,3.2,0.2c6.5,0,13-1.7,13-5c0-0.8-0.4-1.5-1-2c1.1-0.9,1.3-2.5,0.4-3.6
				c-0.1-0.1-0.2-0.3-0.4-0.4c1.1-0.9,1.3-2.5,0.4-3.6c-0.1-0.1-0.2-0.3-0.4-0.4c1.1-0.9,1.3-2.5,0.4-3.6c-0.1-0.1-0.2-0.3-0.4-0.4
				c1.1-0.9,1.3-2.5,0.4-3.6c-0.1-0.1-0.2-0.3-0.4-0.4c1.1-0.9,1.3-2.5,0.4-3.6c-0.1-0.1-0.2-0.3-0.4-0.4c1.1-0.9,1.3-2.5,0.4-3.6
				C92.3,58.2,92.2,58.1,92,58z M31,37H9V25h22V37z M24,4c0-3.9,3.1-7,7-7s7,3.1,7,7v7h-7C27.1,11,24,7.9,24,4z M45,25H33l0,0H45z
				 M40,11V4c0-3.9,3.1-7,7-7s7,3.1,7,7s-3.1,7-7,7H40z M47,25L47,25h22v12H47C47,37,47,25,47,25z M51,64c0,0.2,0,0.3,0.1,0.5
				c3.2,0,5.7,2.6,5.7,5.8c0,3.2-2.6,5.7-5.8,5.7V64z M64,79c-7.1,0-11-2-11-3c0-0.2,0.2-0.5,0.7-0.8C56.2,88.4,60.1,89,64,89
				s7.8-0.6,10.3-1.8c0.4,0.3,0.7,0.6,0.7,0.8c0,1-3.9,3-11,3C64,91,64,79,64,79z M64,75c-7.1,0-11-2-11-3c0-0.2,0.2-0.5,0.7-0.8
				C56.2,84.4,60.1,85,64,85s7.8-0.6,10.3-1.8c0.4,0.3,0.7,0.6,0.7,0.8c0,1-3.9,3-11,3C64,87,64,75,64,75z M64,71c-7.1,0-11-2-11-3
				c0-0.2,0.2-0.5,0.7-0.8C56.2,80.4,60.1,81,64,81s7.8-0.6,10.3-1.8c0.4,0.3,0.7,0.6,0.7,0.8c0,1-3.9,3-11,3C64,83,64,71,64,71z
				 M64,67c-7.1,0-11-2-11-3c0-0.2,0.2-0.5,0.7-0.8C56.2,76.4,60.1,77,64,77s7.8-0.6,10.3-1.8c0.4,0.3,0.7,0.6,0.7,0.8
				c0,1-3.9,3-11,3C64,79,64,67,64,67z M64,63c-7.1,0-11-2-11-3c0-0.2,0.2-0.5,0.7-0.8C56.2,72.4,60.1,73,64,73s7.8-0.6,10.3-1.8
				c0.4,0.3,0.7,0.6,0.7,0.8c0,1-3.9,3-11,3C64,75,64,63,64,63z M64,59c-7.1,0-11-2-11-3s3.9-3,11-3s11,2,11,3S71.1,59,64,59z
				 M80,75c-1.2,0-2.3-0.1-3.3-0.2c-0.2-0.3-0.4-0.6-0.6-0.8c0.3-0.3,0.6-0.7,0.8-1.2c1,0.1,2.1,0.2,3.2,0.2c3.9,0,7.8-0.6,10.3-1.8
				c0.4,0.3,0.7,0.6,0.7,0.8C91,73,87.1,75,80,75z M80,71c-1.2,0-2.3-0.1-3.3-0.2c-0.2-0.3-0.4-0.6-0.6-0.8c0.3-0.3,0.6-0.7,0.8-1.2
				c1,0.1,2.1,0.2,3.2,0.2c3.9,0,7.8-0.6,10.3-1.8c0.4,0.3,0.7,0.6,0.7,0.8C91,69,87.1,71,80,71z M80,67c-1.2,0-2.3-0.1-3.3-0.2
				c-0.2-0.3-0.4-0.6-0.6-0.8c0.3-0.3,0.6-0.7,0.8-1.2c1,0.1,2.1,0.2,3.2,0.2c3.9,0,7.8-0.6,10.3-1.8c0.4,0.3,0.7,0.6,0.7,0.8
				C91,65,87.1,67,80,67z M80,63c-1.2,0-2.3-0.1-3.3-0.2c-0.2-0.3-0.4-0.6-0.6-0.8c0.3-0.3,0.6-0.7,0.8-1.2c1,0.1,2.1,0.2,3.2,0.2
				c3.9,0,7.8-0.6,10.3-1.8c0.4,0.3,0.7,0.6,0.7,0.8C91,61,87.1,63,80,63z M80,59c-1.2,0-2.3-0.1-3.3-0.2c-0.2-0.3-0.4-0.6-0.6-0.8
				c0.3-0.3,0.6-0.7,0.8-1.2c1,0.1,2.1,0.2,3.2,0.2c3.9,0,7.8-0.6,10.3-1.8c0.4,0.3,0.7,0.6,0.7,0.8C91,57,87.1,59,80,59z M80,55
				c-1.2,0-2.3-0.1-3.3-0.2c-0.6-1.2-2.2-2.1-4.2-2.7c1.4,4.8,4,9.2,7.5,12.9c3.9,0,7.8-0.6,10.3-1.8c0.4,0.3,0.7,0.6,0.7,0.8
				c0,1-3.9,3-11,3V55z M69.4,51.4c0.1-0.1,0.2-0.2,0.3-0.3c0.6,0.3,1.2,0.5,1.8,0.7C70.8,51.7,70.1,51.5,69.4,51.4z M80,63
				c-7.1,0-11-2-11-3c0-0.2,0.2-0.5,0.7-0.8C72.2,60.4,76.1,61,80,61s7.8-0.6,10.3-1.8c0.4,0.3,0.7,0.6,0.7,0.8C91,61,87.1,63,80,63
				z M69.4,47.4c-7.1,0-11-2-11-3s3.9-3,11-3s11,2,11,3S76.5,47.4,69.4,47.4z"/>
		</g>
	</g>
	<path id="Rectangle_4709" fill="none" d="M0,0h100v100H0V0z"/>
</g>
</svg>
